<?xml version="1.0" encoding="UTF-8"?>
<svg width="30px" height="28px" viewBox="0 0 30 28" version="1.1" xmlns="http://www.w3.org/2000/svg" xmlns:xlink="http://www.w3.org/1999/xlink">
    <!-- Generator: Sketch 50.2 (55047) - http://www.bohemiancoding.com/sketch -->
    <title>noun_1084882</title>
    <desc>Created with Sketch.</desc>
    <defs></defs>
    <g id="Design" stroke="none" stroke-width="1" fill="none" fill-rule="evenodd">
        <g id="Key-+-Intro-1" transform="translate(-1025.000000, -718.000000)" fill="#1A1A1A">
            <g id="Intro" transform="translate(740.000000, 150.000000)">
                <g id="noun_1084882" transform="translate(285.000000, 568.000000)">
                    <path d="M8.23908249,16.800397 C8.26488752,15.6960741 8.35685929,14.4898544 8.41508602,13.5966034 L8.52161447,11.5361712 C8.3098809,11.6109396 8.098809,11.685708 7.67798853,11.7723864 C7.25782973,11.8584032 6.62792236,11.958315 5.95500662,12.0959418 C5.2814292,12.2342303 4.56550507,12.4135421 3.85355095,12.4671372 C3.14225849,12.5200706 2.43692104,12.4486105 1.94794883,12.4075871 C1.45963829,12.3665637 1.18901632,12.3546537 0.941552713,12.3037053 C0.693427437,12.2514336 0.467137186,12.1588002 0.242170269,12.0648434 C0.187251875,12.3963388 0.131671813,12.7278341 0.087340097,13.2684164 C0.0443317159,13.808337 0.013233348,14.5586678 0.00264666961,15.2878253 C-0.00595500662,16.0176445 0.00595500662,16.7256286 0.0972651081,17.5229378 C0.189898544,18.3189237 0.360608734,19.201588 0.549845611,20.1689457 C0.737759153,21.1363035 0.94486105,22.187693 1.17710631,23.114689 C1.40935157,24.0423467 1.66740185,24.8449493 1.90560212,25.6263785 L2.58050287,27.9283194 C2.87759153,27.8151742 3.17401853,27.7026908 3.5114689,27.612704 C3.84958094,27.5220556 4.22739303,27.4552272 4.66740185,27.4102338 C5.10674901,27.3665637 5.6082929,27.3460521 6.23290693,27.3718571 C6.85685929,27.3983238 7.60454345,27.4711072 8.22717247,27.5385973 C8.85046317,27.606749 9.34803705,27.6696074 9.74305249,27.6861491 C10.1393913,27.7026908 10.4331716,27.6729157 10.5172034,27.6239524 C10.6032201,27.5763123 10.48015,27.5081606 10.4000882,27.4532422 L10.239303,27.2997353 L10.1010146,27.1065285 L9.88398765,26.8365682 C9.80524923,26.729378 9.72651081,26.6003529 9.63189237,26.3681076 C9.5379356,26.1338774 9.42611381,25.7957653 9.2659903,25.1426996 C9.10652845,24.4889722 8.89545655,23.5216145 8.7260697,22.5966034 C8.55668284,21.6722541 8.42633436,20.7909131 8.34164094,19.8493604 C8.25496251,18.907146 8.21327746,17.9047199 8.23908249,16.800397 Z" id="Shape"></path>
                    <path d="M9.53925893,15.1237318 C9.49889722,16.0818262 9.49360388,17.2073225 9.55116895,18.3354654 C9.60807234,19.46427 9.72783414,20.5957212 9.91111601,21.6868108 C10.0950596,22.778562 10.3418615,23.8325981 10.5410234,24.571019 C10.7401853,25.3087781 10.8883988,25.7322453 11.0385973,26.1550507 C11.7088663,26.057124 12.3811204,25.9611822 13.0302161,25.9049404 C13.6779885,25.8493604 14.3045876,25.8334804 14.9913983,25.8625937 C15.6782091,25.8910454 16.4258933,25.9644905 17.1504191,26.098809 C17.8756065,26.2331275 18.574989,26.428981 19.2148213,26.5811645 C19.8559771,26.7320247 20.4355977,26.8405382 21.1197618,26.9318483 C21.8032642,27.0231584 22.5919718,27.0979268 23.407146,27.0688134 C24.2216586,27.0410234 25.0613145,26.9100132 25.5873401,26.8061315 C26.1133657,26.7022497 26.3244376,26.6288046 26.5427878,26.3879577 C26.7611381,26.1457874 26.9874283,25.7388619 27.1078518,25.3478165 C27.2289369,24.9554477 27.2441553,24.5822673 27.1726952,24.2871637 C27.1025584,23.99206 26.9437583,23.7763564 26.7862814,23.5613145 C27.1230701,23.4911778 27.4591972,23.423026 27.7569475,23.2893692 C28.0540362,23.1563741 28.3134098,22.9578738 28.5112483,22.7157036 C28.7084252,22.4735333 28.8460521,22.1883547 28.9228055,21.8370093 C29.0008822,21.4850022 29.0180856,21.0688134 28.9684605,20.7538597 C28.9188355,20.4395677 28.802382,20.2258491 28.6647552,20.0326423 C28.5264667,19.8387737 28.3676665,19.6660785 28.2068813,19.49206 C28.5072783,19.2962064 28.8076753,19.0996912 29.067049,18.9018527 C29.3257609,18.7046758 29.5421262,18.5055139 29.699603,18.2401853 C29.8557565,17.9755183 29.9530216,17.6473313 29.986105,17.3561976 C30.01985,17.0657256 29.98809,16.8136303 29.9146449,16.5820468 C29.8405382,16.3491398 29.725408,16.1360829 29.5255845,15.8978827 C29.3270843,15.6596824 29.0458756,15.3976621 28.8652404,15.2448169 C28.6832819,15.0906484 28.6025584,15.0456551 28.5211734,15.0006617 C28.7812086,14.7611381 29.0412439,14.5222761 29.2602558,14.2807675 C29.4792678,14.0405823 29.6552713,13.7977503 29.7518747,13.48809 C29.8491398,13.179753 29.8643582,12.8052492 29.8352448,12.4909572 C29.8067931,12.1766652 29.7340097,11.9232466 29.6182179,11.7108513 C29.5017644,11.4964711 29.3423026,11.3237759 29.1418174,11.1490957 C28.9400088,10.9730922 28.6971769,10.796427 28.47221,10.6826202 C28.2485664,10.5688134 28.0414645,10.5172034 27.6060873,10.4589766 C27.1700485,10.3987649 26.5063961,10.3286281 25.7137186,10.3160565 C24.9223644,10.3048081 24.0033083,10.3498015 23.3978827,10.3656815 C22.7917953,10.3815615 22.5006617,10.3696515 22.209528,10.3577415 C22.4325099,9.99117777 22.6574768,9.62593736 22.9883105,9.17997353 C23.3204676,8.73599471 23.7591531,8.21261579 24.1144685,7.68394354 C24.4704455,7.15659462 24.7423908,6.62659903 24.9336127,6.05028672 C25.1241729,5.47463608 25.2346714,4.85333039 25.2770181,4.33458315 C25.3200265,3.81451257 25.2955448,3.39633877 25.2108513,2.93449493 C25.1248346,2.47132775 24.9799294,1.96581385 24.7880459,1.56153507 C24.5961623,1.15725629 24.3579621,0.855535951 24.1184385,0.615350684 C23.8782532,0.375827084 23.6360829,0.199161888 23.3482576,0.103881782 C23.0597706,0.00794000882 22.7269519,-0.00595500662 22.4133216,0.00264666961 C22.1003529,0.00992501103 21.8072342,0.0390383767 21.5531539,0.132995148 C21.2990737,0.226290251 21.0833701,0.38442876 20.9311866,0.544552272 C20.7776798,0.70533745 20.6883547,0.868107631 20.6572563,1.09638288 C20.6274813,1.32531981 20.6565946,1.61843846 20.6188796,2.01279224 C20.5818262,2.40714601 20.4779444,2.90273489 20.3350243,3.31429202 C20.1934274,3.72452581 20.0121306,4.05072783 19.7461403,4.43581826 C19.4794883,4.82223202 19.1274813,5.26554918 18.584914,5.78429643 C18.041685,6.304367 17.3072342,6.899206 16.6581385,7.45566828 C16.0097045,8.01279224 15.4453022,8.53087781 15.03176,8.95235995 C14.6182179,9.37251875 14.3542126,9.69475077 14.0657256,10.0996912 C13.778562,10.505955 13.466255,10.9929422 13.1585796,11.3760476 C12.8509043,11.7591531 12.5471989,12.0383767 12.1647552,12.2097486 C11.7809881,12.3817821 11.3198059,12.4459638 10.9009704,12.4902955 L9.72915748,12.5882223 C9.65372739,13.3769299 9.57895898,14.1656374 9.53925893,15.1237318 Z" id="Shape"></path>
                </g>
            </g>
        </g>
    </g>
</svg>