<?xml version="1.0" encoding="UTF-8"?>
<svg width="36px" height="35px" viewBox="0 0 36 35" version="1.1" xmlns="http://www.w3.org/2000/svg" xmlns:xlink="http://www.w3.org/1999/xlink">
    <!-- Generator: Sketch 50.2 (55047) - http://www.bohemiancoding.com/sketch -->
    <title>experience</title>
    <desc>Created with Sketch.</desc>
    <defs></defs>
    <g id="Design" stroke="none" stroke-width="1" fill="none" fill-rule="evenodd">
        <g id="Homepage" transform="translate(-285.000000, -820.000000)" fill="#FFFFFF" fill-rule="nonzero">
            <g id="Hero-6">
                <g id="content" transform="translate(120.000000, 244.000000)">
                    <g id="ar-button" transform="translate(125.000000, 556.000000)">
                        <g id="experience" transform="translate(40.000000, 20.000000)">
                            <path d="M27.5,17 C26.8297142,17 26.2857142,16.456 26.2857142,15.7857143 C26.2857142,12.4391428 23.5608571,9.71428569 20.2142857,9.71428569 C19.544,9.71428569 19,9.17028569 19,8.49999997 C19,7.82971424 19.544,7.28571425 20.2142857,7.28571425 C23.5608571,7.28571425 26.2857142,4.56085716 26.2857142,1.21428572 C26.2857142,0.543999995 26.8297142,0 27.5,0 C28.1702857,0 28.7142857,0.543999995 28.7142857,1.21428572 C28.7142857,4.56085716 31.4391428,7.28571425 34.7857143,7.28571425 C35.456,7.28571425 36,7.82971424 36,8.49999997 C36,9.17028569 35.456,9.71428569 34.7857143,9.71428569 C31.4391428,9.71428569 28.7142857,12.4391428 28.7142857,15.7857143 C28.7142857,16.456 28.1702857,17 27.5,17 Z M24.5881429,8.49999997 C25.7781428,9.21885712 26.7811429,10.2194285 27.5,11.4118571 C28.2188571,10.2218572 29.2194285,9.21885712 30.4118571,8.49999997 C29.2218572,7.78114288 28.2188571,6.7805714 27.5,5.58814288 C26.7811429,6.77814284 25.7805714,7.78114288 24.5881429,8.49999997 Z" id="Shape"></path>
                            <path d="M3.5,24 C2.85599999,24 2.33333333,23.4773333 2.33333333,22.8333333 C2.33333333,22.1893333 1.81066667,21.6666667 1.16666667,21.6666667 C0.522666723,21.6666667 0,21.144 0,20.5 C0,19.856 0.522666723,19.3333333 1.16666667,19.3333333 C1.81066667,19.3333333 2.33333333,18.8106667 2.33333333,18.1666667 C2.33333333,17.5226667 2.85599999,17 3.5,17 C4.14400001,17 4.66666667,17.5226667 4.66666667,18.1666667 C4.66666667,18.8106667 5.18933333,19.3333333 5.83333333,19.3333333 C6.47733334,19.3333333 7,19.856 7,20.5 C7,21.144 6.47733334,21.6666667 5.83333333,21.6666667 C5.18933333,21.6666667 4.66666667,22.1893333 4.66666667,22.8333333 C4.66666667,23.4773333 4.14400001,24 3.5,24 Z" id="Shape"></path>
                            <path d="M8,12 C7.33759999,12 6.8,11.4624 6.8,10.8 C6.8,8.81520001 5.18480004,7.19999997 3.2,7.19999997 C2.53759999,7.19999997 2,6.66239998 2,5.99999997 C2,5.33760002 2.53759999,4.80000003 3.2,4.80000003 C5.18480004,4.80000003 6.8,3.18479999 6.8,1.20000001 C6.8,0.537599996 7.33759999,0 8,0 C8.66240001,0 9.2,0.537599996 9.2,1.20000001 C9.2,3.18479999 10.8152,4.80000003 12.8,4.80000003 C13.4624,4.80000003 14,5.33760002 14,5.99999997 C14,6.66239998 13.4624,7.19999997 12.8,7.19999997 C10.8152,7.19999997 9.2,8.81520001 9.2,10.8 C9.2,11.4624 8.66240001,12 8,12 Z M6.79520003,5.99999997 C7.25119998,6.34320002 7.65680001,6.74879999 8,7.20480001 C8.34319999,6.74879999 8.74880002,6.34320002 9.20480003,5.99999997 C8.74880002,5.65679998 8.34319999,5.25120001 8,4.79519999 C7.65680001,5.25120001 7.25119998,5.65679998 6.79520003,5.99999997 Z" id="Shape"></path>
                            <path d="M12,35 C11.3376,35 10.8,34.4624 10.8,33.8 C10.8,31.8152 9.18480004,30.2 7.2,30.2 C6.53759999,30.2 6,29.6624 6,29 C6,28.3376 6.53759999,27.8 7.2,27.8 C9.18480004,27.8 10.8,26.1848 10.8,24.2 C10.8,23.5376 11.3376,23 12,23 C12.6624,23 13.2,23.5376 13.2,24.2 C13.2,26.1848 14.8152,27.8 16.8,27.8 C17.4624,27.8 18,28.3376 18,29 C18,29.6624 17.4624,30.2 16.8,30.2 C14.8152,30.2 13.2,31.8152 13.2,33.8 C13.2,34.4624 12.6624,35 12,35 Z M10.7952,29 C11.2512,29.3432 11.6568,29.7488 12,30.2048 C12.3432,29.7488 12.7488,29.3432 13.2048,29 C12.7488,28.6568 12.3432,28.2512 12,27.7952 C11.6568,28.2512 11.2512,28.6568 10.7952,29 Z" id="Shape"></path>
                        </g>
                    </g>
                </g>
            </g>
        </g>
    </g>
</svg>