<?xml version="1.0" encoding="UTF-8"?>
<svg width="50px" height="65px" viewBox="0 0 50 65" version="1.1" xmlns="http://www.w3.org/2000/svg" xmlns:xlink="http://www.w3.org/1999/xlink">
    <!-- Generator: Sketch 50.2 (55047) - http://www.bohemiancoding.com/sketch -->
    <title>pin</title>
    <desc>Created with Sketch.</desc>
    <defs></defs>
    <g id="Design" stroke="none" stroke-width="1" fill="none" fill-rule="evenodd">
        <g id="Map-1" transform="translate(-951.000000, -310.000000)" fill="#1A1A1A" fill-rule="nonzero">
            <g id="map" transform="translate(120.000000, 110.000000)">
                <g id="pin" transform="translate(831.000000, 200.000000)">
                    <path d="M18.7162162,1.14864865 C7.7027027,3.85135135 0.405405405,13.5810811 0.405405405,24.9324324 C0.405405405,27.4324324 0.743243243,29.7972973 1.41891892,31.9594595 C2.09459459,34.3918919 3.17567568,36.6216216 4.59459459,38.6486486 C4.93243243,39.1891892 17.0945946,55.8783784 22.5,63.2432432 C23.7162162,64.9324324 26.2162162,64.9324324 27.5,63.2432432 C32.9054054,55.8783784 45.1351351,39.1216216 45.472973,38.5135135 C46.8243243,36.5540541 47.8378378,34.3243243 48.5135135,31.9594595 C49.1891892,29.7297297 49.527027,27.3648649 49.527027,24.9324324 C49.5945946,9.25675676 35,-2.90540541 18.7162162,1.14864865 Z M25,35.8108108 C18.9864865,35.8108108 14.1216216,30.9459459 14.1216216,24.9324324 C14.1216216,18.9189189 18.9864865,14.0540541 25,14.0540541 C31.0135135,14.0540541 35.8783784,18.9189189 35.8783784,24.9324324 C35.8783784,30.9459459 31.0135135,35.8108108 25,35.8108108 Z" id="Shape"></path>
                </g>
            </g>
        </g>
    </g>
</svg>