<?xml version="1.0" encoding="UTF-8"?>
<svg width="55px" height="63px" viewBox="0 0 55 63" version="1.1" xmlns="http://www.w3.org/2000/svg" xmlns:xlink="http://www.w3.org/1999/xlink">
    <!-- Generator: Sketch 52.5 (67469) - http://www.bohemiancoding.com/sketch -->
    <title>icon-sphere</title>
    <desc>Created with Sketch.</desc>
    <g id="Symbols" stroke="none" stroke-width="1" fill="none" fill-rule="evenodd">
        <g id="Content-+-Image-1" transform="translate(-1480.000000, -590.000000)" fill="#FFFFFF">
            <g id="Intro">
                <g transform="translate(120.000000, 100.000000)">
                    <g id="img" transform="translate(870.000000, 74.000000)">
                        <g id="icon-sphere" transform="translate(490.000000, 416.000000)">
                            <text id="360" font-family="CircularStd-Bold, Circular Std" font-size="14" font-weight="bold" letter-spacing="1">
                                <tspan x="14" y="62">36</tspan>
                                <tspan x="31.792" y="62">0</tspan>
                            </text>
                            <g id="sphere" transform="translate(0.000000, -0.000000)">
                                <path d="M52.7683246,11.2416264 L52.4803665,11.1045334 C50.6086387,10.0763359 48.3769634,9.18523134 45.8573298,8.43121982 C41.5379581,3.29023212 34.9149215,0 27.4280105,0 C20.013089,0 13.3180628,3.29023212 8.9986911,8.43121982 C6.47905759,9.18523134 4.2473822,10.0763359 2.37565445,11.1045334 L2.08769634,11.2416264 L2.01570681,11.4472659 C0.791884817,13.2980215 0,17.4793582 0,22.4147063 C0,27.3500545 0.791884817,31.5313912 2.01570681,33.3821468 L2.15968586,33.6563328 L2.44764398,33.7934258 C4.31937173,34.8216233 6.55104712,35.7127278 9.07068063,36.4667394 C13.3900524,41.6077271 20.013089,44.8979592 27.5,44.8979592 C34.9149215,44.8979592 41.6099476,41.6077271 45.9293194,36.4667394 C48.4489529,35.7127278 50.6806283,34.8216233 52.552356,33.7934258 L52.8403141,33.6563328 L52.9842932,33.3821468 C54.2081152,31.5313912 55,27.3500545 55,22.4147063 C55,17.4793582 54.2081152,13.2980215 52.9842932,11.4472659 L52.7683246,11.2416264 Z M27.5,36.3981929 C18.1413613,36.3981929 9.43062827,34.6845303 4.03141361,31.8055772 C3.31151832,30.5031936 2.59162304,27.144415 2.59162304,22.4147063 C2.59162304,17.6849977 3.31151832,14.326219 4.03141361,13.0238355 C9.43062827,10.1448824 18.1413613,8.43121982 27.5,8.43121982 C36.8586387,8.43121982 45.5693717,10.1448824 50.9685864,13.0238355 C51.6884817,14.326219 52.408377,17.6849977 52.408377,22.4147063 C52.408377,27.144415 51.6884817,30.5031936 50.9685864,31.8055772 C45.5693717,34.6845303 36.8586387,36.3981929 27.5,36.3981929 Z" id="Shape" fill-rule="nonzero"></path>
                                <path d="M26.9734785,13.4693878 C18.6454487,13.4693878 12.3469388,16.3325839 12.3469388,20.0613974 C12.3469388,22.258734 14.3764586,24.1231408 18.0855811,25.388274 C18.7154321,25.5880318 19.4152666,25.255102 19.6952003,24.6558284 C19.9051507,24.0565548 19.5552335,23.3906953 18.9253825,23.1243514 C16.4759619,22.32532 14.8663427,21.1267727 14.8663427,20.0613974 C14.8663427,18.2635766 19.48525,15.7998962 26.9734785,15.7998962 C34.4617069,15.7998962 39.0806142,18.2635766 39.0806142,20.0613974 C39.0806142,21.3265306 36.7711606,22.8580076 32.9220712,23.723625 L34.8816076,22.1255621 C35.3714917,21.7260464 35.4414751,20.9270149 35.0215745,20.4609132 C34.6016738,19.9948115 33.7618725,19.9282255 33.2719884,20.3277413 L27.9532467,24.6558284 C27.6033295,24.9221723 27.4633626,25.321688 27.533346,25.7877897 C27.6033295,26.1873054 27.8832632,26.5202352 28.3031639,26.7199931 L34.8116242,29.1170875 C34.951591,29.1836735 35.0915579,29.1836735 35.2315248,29.1836735 C35.7214089,29.1836735 36.211293,28.9173296 36.4212434,28.4512279 C36.7011771,27.8519543 36.3512599,27.1195088 35.7214089,26.919751 L33.4819387,26.1207195 C38.4507632,25.0553442 41.5300347,22.8580076 41.5300347,20.1279834 C41.6000182,16.3325839 35.3015083,13.4693878 26.9734785,13.4693878 Z" id="Path"></path>
                            </g>
                        </g>
                    </g>
                </g>
            </g>
        </g>
    </g>
</svg>