<?xml version="1.0" encoding="UTF-8"?>
<svg width="50px" height="44px" viewBox="0 0 50 44" version="1.1" xmlns="http://www.w3.org/2000/svg" xmlns:xlink="http://www.w3.org/1999/xlink">
    <!-- Generator: Sketch 50.2 (55047) - http://www.bohemiancoding.com/sketch -->
    <title>icon</title>
    <desc>Created with Sketch.</desc>
    <defs></defs>
    <g id="Design" stroke="none" stroke-width="1" fill="none" fill-rule="evenodd">
        <g id="Icons-1" transform="translate(-120.000000, -570.000000)" fill="#1A1A1A" fill-rule="nonzero">
            <g id="Intro" transform="translate(120.000000, 140.000000)">
                <g id="icon" transform="translate(0.000000, 430.000000)">
                    <g id="Shape">
                        <path d="M48.1672222,16.9088889 C48.8255556,16.9088889 49.4355556,16.5538889 49.76,15.9822222 C50.0016667,15.5566667 50.0633333,15.0638889 49.9338889,14.5922222 C49.8038889,14.12 49.4983333,13.7272222 49.0727778,13.4866667 L44.475,10.875 L44.475,4.79722222 C44.475,3.87111111 43.6216667,3.11722222 42.5727778,3.11722222 C41.5238889,3.11722222 40.6705556,3.87111111 40.6705556,4.79722222 L40.6705556,8.71444444 L25.9605556,0.358888889 C25.2472222,-0.0361111111 24.2705556,-0.0311111111 23.5516667,0.379444444 L0.913888889,13.4938889 C0.491111111,13.7383333 0.188333333,14.1338889 0.0622222222,14.6066667 C-0.0633333333,15.0794444 0.00333333333,15.5722222 0.248333333,15.9955556 C0.573888889,16.5588889 1.18166667,16.9088889 1.83333333,16.9088889 C2.15388889,16.9088889 2.47111111,16.8238889 2.74888889,16.6616667 L24.7805556,3.89833333 L47.2655556,16.6705556 C47.54,16.8261111 47.8522222,16.9088889 48.1672222,16.9088889 Z"></path>
                        <path d="M43.0594444,43.2666667 C43.89,43.2666667 44.565,42.5905556 44.565,41.7611111 L44.565,20.2883333 C44.565,19.7038889 44.225,19.1138889 43.7022222,18.8044444 L25.6583333,8.24888889 C25.1533333,7.96444444 24.4494444,7.97222222 23.9577778,8.26 L6.26944444,18.8188889 C5.76277778,19.1222222 5.435,19.7 5.435,20.2883333 L5.435,41.7611111 C5.435,42.5905556 6.11,43.2666667 6.93888889,43.2666667 L43.0594444,43.2666667 Z M25,24.2177778 C28.0244444,18.8188889 37.675,21.9966667 33.9322222,30.3911111 C32.0516667,34.6116667 25.8438889,38.5066667 25.0011111,38.7694444 C24.1566667,38.5066667 17.95,34.6111111 16.0677778,30.3911111 C12.3255556,21.9966667 21.9761111,18.8188889 25,24.2177778 Z"></path>
                    </g>
                </g>
            </g>
        </g>
    </g>
</svg>