<?xml version="1.0" encoding="UTF-8"?>
<svg width="30px" height="30px" viewBox="0 0 30 30" version="1.1" xmlns="http://www.w3.org/2000/svg" xmlns:xlink="http://www.w3.org/1999/xlink">
    <!-- Generator: Sketch 50.2 (55047) - http://www.bohemiancoding.com/sketch -->
    <title>noun_1150990</title>
    <desc>Created with Sketch.</desc>
    <defs></defs>
    <g id="Design" stroke="none" stroke-width="1" fill="none" fill-rule="evenodd">
        <g id="Hero-4" transform="translate(-1530.000000, -130.000000)" fill="#1A1A1A" fill-rule="nonzero">
            <g id="Hero" transform="translate(120.000000, 100.000000)">
                <g id="noun_1150990" transform="translate(1410.000000, 30.000000)">
                    <path d="M21.6666667,0.833333333 L8.33333333,0.833333333 C4.19119771,0.833333333 0.833333333,4.19119771 0.833333333,8.33333333 L0.833333333,21.6666667 C0.833333333,25.8088023 4.19119771,29.1666667 8.33333333,29.1666667 L21.6666667,29.1666667 C23.6557903,29.1666667 25.5634447,28.3764904 26.9699675,26.9699675 C28.3764904,25.5634447 29.1666667,23.6557903 29.1666667,21.6666667 L29.1666667,8.33333333 C29.1666667,4.19119771 25.8088023,0.833333333 21.6666667,0.833333333 Z M27.5,21.6666667 C27.5,24.8883277 24.8883277,27.5 21.6666667,27.5 L8.33333333,27.5 C5.11167229,27.5 2.5,24.8883277 2.5,21.6666667 L2.5,8.33333333 C2.5,5.11167229 5.11167229,2.5 8.33333333,2.5 L21.6666667,2.5 C24.8883277,2.5 27.5,5.11167229 27.5,8.33333333 L27.5,21.6666667 Z" id="Shape"></path>
                    <path d="M15,8.33333333 C11.3181017,8.33333333 8.33333333,11.3181017 8.33333333,15 C8.33333333,18.6818983 11.3181017,21.6666667 15,21.6666667 C18.6818983,21.6666667 21.6666667,18.6818983 21.6666667,15 C21.6666667,13.2318901 20.9642877,11.5361973 19.7140452,10.2859548 C18.4638027,9.03571227 16.7681099,8.33333333 15,8.33333333 Z M15,20 C12.2385763,20 10,17.7614237 10,15 C10,12.2385763 12.2385763,10 15,10 C17.7614237,10 20,12.2385763 20,15 C20,16.3260824 19.4732158,17.597852 18.5355339,18.5355339 C17.597852,19.4732158 16.3260824,20 15,20 Z" id="Shape"></path>
                    <path d="M22.5,5.83333333 C21.5795254,5.83333333 20.8333333,6.57952542 20.8333333,7.5 C20.8333333,8.42047458 21.5795254,9.16666667 22.5,9.16666667 C23.4204746,9.16666667 24.1666667,8.42047458 24.1666667,7.5 C24.1666667,6.57952542 23.4204746,5.83333333 22.5,5.83333333 Z" id="Shape"></path>
                </g>
            </g>
        </g>
    </g>
</svg>