<?xml version="1.0" encoding="UTF-8"?>
<svg width="84px" height="84px" viewBox="0 0 84 84" version="1.1" xmlns="http://www.w3.org/2000/svg" xmlns:xlink="http://www.w3.org/1999/xlink">
    <!-- Generator: Sketch 50.2 (55047) - http://www.bohemiancoding.com/sketch -->
    <title>logomark</title>
    <desc>Created with Sketch.</desc>
    <defs></defs>
    <g id="Design" stroke="none" stroke-width="1" fill="none" fill-rule="evenodd">
        <g id="Hero-2" transform="translate(-666.000000, -53.000000)">
            <g id="Hero">
                <g id="logomark" transform="translate(668.000000, 55.000000)">
                    <path d="M22.944,21.888 L30.896,21.888 L33.556,34.488 L33.724,34.488 C33.864,33.2 34.032,31.856 34.368,30.596 L36.608,21.888 L42.488,21.888 L45.372,34.488 L45.54,34.488 C45.652,33.256 45.792,31.968 46.072,30.764 L48.2,21.888 L56.18,21.888 L48.732,43 L42.04,43 L39.632,31.52 L39.38,31.52 C39.296,32.612 39.24,33.676 38.988,34.712 L36.86,43 L30.336,43 L22.944,21.888 Z" id="W" fill="#FFFFFF"></path>
                    <circle id="Oval" stroke="#FFFFFF" stroke-width="4" cx="40" cy="40" r="40"></circle>
                    <path d="M24.16,62.25 C27.8050793,62.25 30.76,59.1719576 30.76,55.375 C30.76,54.6156085 31.3509842,54 32.08,54 C32.444508,54 32.774508,54.1539021 33.013381,54.4027282 C33.252254,54.6515542 33.4,54.9953042 33.4,55.375 C33.4,59.1719576 36.3549207,62.25 40,62.25 C43.6450793,62.25 46.6,59.1719576 46.6,55.375 C46.6,54.6156085 47.1909842,54 47.92,54 C48.284508,54 48.614508,54.1539021 48.853381,54.4027282 C49.092254,54.6515542 49.24,54.9953042 49.24,55.375 C49.24,59.1719576 52.1949207,62.25 55.84,62.25 C59.4850793,62.25 62.44,59.1719576 62.44,55.375 C62.44,54.9953042 62.587746,54.6515542 62.826619,54.4027282 C63.065492,54.1539021 63.395492,54 63.76,54 C64.4890158,54 65.08,54.6156085 65.08,55.375 C65.08,59.1719576 68.0349207,62.25 71.68,62.25 C72.4090158,62.25 73,62.8656085 73,63.625 C73,64.3843915 72.4090158,65 71.68,65 C68.3188509,65 65.3768642,63.1305745 63.76,60.3354316 C62.1431358,63.1305745 59.2011491,65 55.84,65 C52.4788509,65 49.5368642,63.1305745 47.92,60.3354316 C46.3031358,63.1305745 43.3611491,65 40,65 C36.6388509,65 33.6968642,63.1305745 32.08,60.3354316 C30.4631358,63.1305745 27.5211491,65 24.16,65 C20.7988509,65 17.8568642,63.1305745 16.24,60.3354316 C14.6231358,63.1305745 11.6811491,65 8.32,65 C7.5909842,65 7,64.3843915 7,63.625 C7,62.8656085 7.5909842,62.25 8.32,62.25 C11.9650793,62.25 14.92,59.1719576 14.92,55.375 C14.92,54.9953042 15.067746,54.6515542 15.306619,54.4027282 C15.545492,54.1539021 15.875492,54 16.24,54 C16.9690158,54 17.56,54.6156085 17.56,55.375 C17.56,59.1719576 20.5149207,62.25 24.16,62.25 Z" id="Shape" stroke="#FFFFFF" fill="#FFFFFF" fill-rule="nonzero"></path>
                </g>
            </g>
        </g>
    </g>
</svg>